<?xml version="1.0" standalone="no"?>
<!DOCTYPE svg PUBLIC "-//W3C//DTD SVG 20010904//EN"
 "http://www.w3.org/TR/2001/REC-SVG-20010904/DTD/svg10.dtd">
<svg version="1.0" xmlns="http://www.w3.org/2000/svg"
 width="260.000000pt" height="260.000000pt" viewBox="0 0 260.000000 260.000000"
 preserveAspectRatio="xMidYMid meet">
<metadata>
Created by potrace 1.11, written by Peter Selinger 2001-2013
</metadata>
<g transform="translate(0.000000,260.000000) scale(0.100000,-0.100000)"
fill="#000000" stroke="none">
<path d="M50 1300 l0 -1250 1250 0 1250 0 0 1250 0 1250 -1250 0 -1250 0 0
-1250z m1028 425 c106 -32 166 -115 167 -230 0 -59 -4 -78 -28 -117 -15 -26
-37 -53 -48 -58 -19 -11 -18 -13 19 -40 74 -54 108 -127 99 -216 -7 -66 -28
-112 -74 -158 -55 -54 -107 -66 -300 -66 l-163 0 0 450 0 450 138 0 c96 0 154
-5 190 -15z m792 -35 l0 -50 -80 0 -80 0 0 -355 0 -355 80 0 80 0 0 -45 0 -45
-210 0 -210 0 0 45 0 44 78 3 77 3 3 353 2 352 -80 0 -80 0 0 50 0 50 210 0
210 0 0 -50z"/>
<path d="M850 1490 l0 -150 93 0 c102 0 146 15 180 61 30 42 33 109 8 162 -30
63 -65 77 -185 77 l-96 0 0 -150z"/>
<path d="M850 1084 l0 -157 118 5 c128 5 166 18 198 65 26 39 26 147 0 186
-32 48 -63 57 -196 57 l-120 0 0 -156z"/>
</g>
</svg>
